<?xml version="1.0" encoding="UTF-8" standalone="no"?>
<!DOCTYPE svg PUBLIC "-//W3C//DTD SVG 1.1//EN"
 "http://www.w3.org/Graphics/SVG/1.1/DTD/svg11.dtd">
<!-- Generated by graphviz version 12.2.1 (20241206.2353)
 -->
<!-- Title: compose Pages: 1 -->
<svg width="395pt" height="244pt"
 viewBox="0.00 0.00 395.00 243.75" xmlns="http://www.w3.org/2000/svg" xmlns:xlink="http://www.w3.org/1999/xlink">
<g id="graph0" class="graph" transform="scale(1 1) rotate(0) translate(4 239.75)">
<title>compose</title>
<polygon fill="white" stroke="none" points="-4,4 -4,-239.75 391,-239.75 391,4 -4,4"/>
<g id="clust1" class="cluster">
<title>cluster_0</title>
<path fill="none" stroke="#252525" stroke-width="2" stroke-dasharray="5,2" d="M20,-8C20,-8 145,-8 145,-8 151,-8 157,-14 157,-20 157,-20 157,-215.75 157,-215.75 157,-221.75 151,-227.75 145,-227.75 145,-227.75 20,-227.75 20,-227.75 14,-227.75 8,-221.75 8,-215.75 8,-215.75 8,-20 8,-20 8,-14 14,-8 20,-8"/>
<text text-anchor="middle" x="82.5" y="-210.45" font-family="arial" font-size="14.00">docker&#45;compose.yaml</text>
</g>
<g id="clust2" class="cluster">
<title>cluster_1</title>
<path fill="none" stroke="#252525" stroke-width="2" stroke-dasharray="5,2" d="M177,-152C177,-152 367,-152 367,-152 373,-152 379,-158 379,-164 379,-164 379,-215.75 379,-215.75 379,-221.75 373,-227.75 367,-227.75 367,-227.75 177,-227.75 177,-227.75 171,-227.75 165,-221.75 165,-215.75 165,-215.75 165,-164 165,-164 165,-158 171,-152 177,-152"/>
<text text-anchor="middle" x="272" y="-210.45" font-family="arial" font-size="14.00">Legend</text>
</g>
<!-- database_data -->
<g id="node1" class="node">
<title>database_data</title>
<path fill="#525252" stroke="#252525" stroke-width="2" d="M134.62,-48.73C134.62,-50.53 111.04,-52 82,-52 52.96,-52 29.38,-50.53 29.38,-48.73 29.38,-48.73 29.38,-19.27 29.38,-19.27 29.38,-17.47 52.96,-16 82,-16 111.04,-16 134.62,-17.47 134.62,-19.27 134.62,-19.27 134.62,-48.73 134.62,-48.73"/>
<path fill="none" stroke="#252525" stroke-width="2" d="M134.62,-48.73C134.62,-46.92 111.04,-45.45 82,-45.45 52.96,-45.45 29.38,-46.92 29.38,-48.73"/>
<text text-anchor="middle" x="82" y="-28.57" font-family="arial" font-size="14.00" fill="white">database_data</text>
</g>
<!-- my_database -->
<g id="node2" class="node">
<title>my_database</title>
<path fill="#238b45" stroke="#005824" stroke-width="2" d="M129.38,-120.73C129.38,-122.53 108.14,-124 82,-124 55.86,-124 34.62,-122.53 34.62,-120.73 34.62,-120.73 34.62,-91.27 34.62,-91.27 34.62,-89.47 55.86,-88 82,-88 108.14,-88 129.38,-89.47 129.38,-91.27 129.38,-91.27 129.38,-120.73 129.38,-120.73"/>
<path fill="none" stroke="#005824" stroke-width="2" d="M129.38,-120.73C129.38,-118.92 108.14,-117.45 82,-117.45 55.86,-117.45 34.62,-118.92 34.62,-120.73"/>
<text text-anchor="middle" x="82" y="-100.58" font-family="arial" font-size="14.00" fill="white">my&#45;database</text>
</g>
<!-- my_database&#45;&gt;database_data -->
<g id="edge1" class="edge">
<title>my_database&#45;&gt;database_data</title>
<path fill="none" stroke="#252525" stroke-width="2" stroke-dasharray="5,2" d="M82,-87.7C82,-80.41 82,-71.73 82,-63.54"/>
<polygon fill="#252525" stroke="#252525" stroke-width="2" points="85.5,-65.13 82,-55.13 78.5,-65.13 85.5,-65.13"/>
</g>
<!-- my_service -->
<g id="node3" class="node">
<title>my_service</title>
<path fill="#2171b5" stroke="#084594" stroke-width="2" d="M111,-196C111,-196 53,-196 53,-196 47,-196 41,-190 41,-184 41,-184 41,-172 41,-172 41,-166 47,-160 53,-160 53,-160 111,-160 111,-160 117,-160 123,-166 123,-172 123,-172 123,-184 123,-184 123,-190 117,-196 111,-196"/>
<text text-anchor="middle" x="82" y="-172.57" font-family="arial" font-size="14.00" fill="white">my&#45;service</text>
</g>
<!-- my_service&#45;&gt;my_database -->
<g id="edge2" class="edge">
<title>my_service&#45;&gt;my_database</title>
<path fill="none" stroke="#252525" stroke-width="2" d="M82,-159.7C82,-152.83 82,-144.73 82,-136.97"/>
<polygon fill="#252525" stroke="#252525" stroke-width="2" points="82,-137.91 78,-131.91 82,-125.91 86,-131.91 82,-137.91"/>
</g>
<!-- service -->
<g id="node4" class="node">
<title>service</title>
<path fill="#2171b5" stroke="#084594" stroke-width="2" d="M215,-196C215,-196 185,-196 185,-196 179,-196 173,-190 173,-184 173,-184 173,-172 173,-172 173,-166 179,-160 185,-160 185,-160 215,-160 215,-160 221,-160 227,-166 227,-172 227,-172 227,-184 227,-184 227,-190 221,-196 215,-196"/>
<text text-anchor="middle" x="200" y="-175.28" font-family="arial" font-size="8.00" fill="white">service</text>
</g>
<!-- database -->
<g id="node5" class="node">
<title>database</title>
<path fill="#238b45" stroke="#005824" stroke-width="2" d="M299,-192.73C299,-194.53 286.9,-196 272,-196 257.1,-196 245,-194.53 245,-192.73 245,-192.73 245,-163.27 245,-163.27 245,-161.47 257.1,-160 272,-160 286.9,-160 299,-161.47 299,-163.27 299,-163.27 299,-192.73 299,-192.73"/>
<path fill="none" stroke="#005824" stroke-width="2" d="M299,-192.73C299,-190.92 286.9,-189.45 272,-189.45 257.1,-189.45 245,-190.92 245,-192.73"/>
<text text-anchor="middle" x="272" y="-175.28" font-family="arial" font-size="8.00" fill="white">database</text>
</g>
<!-- volume -->
<g id="node6" class="node">
<title>volume</title>
<path fill="#525252" stroke="#252525" stroke-width="2" d="M371,-192.73C371,-194.53 358.9,-196 344,-196 329.1,-196 317,-194.53 317,-192.73 317,-192.73 317,-163.27 317,-163.27 317,-161.47 329.1,-160 344,-160 358.9,-160 371,-161.47 371,-163.27 371,-163.27 371,-192.73 371,-192.73"/>
<path fill="none" stroke="#252525" stroke-width="2" d="M371,-192.73C371,-190.92 358.9,-189.45 344,-189.45 329.1,-189.45 317,-190.92 317,-192.73"/>
<text text-anchor="middle" x="344" y="-175.28" font-family="arial" font-size="8.00" fill="white">volume</text>
</g>
</g>
</svg>
