<?xml version="1.0" encoding="UTF-8" standalone="no"?>
<!DOCTYPE svg PUBLIC "-//W3C//DTD SVG 1.1//EN"
 "http://www.w3.org/Graphics/SVG/1.1/DTD/svg11.dtd">
<!-- Generated by graphviz version 12.2.1 (20241206.2353)
 -->
<!-- Title: compose Pages: 1 -->
<svg width="376pt" height="244pt"
 viewBox="0.00 0.00 376.00 243.75" xmlns="http://www.w3.org/2000/svg" xmlns:xlink="http://www.w3.org/1999/xlink">
<g id="graph0" class="graph" transform="scale(1 1) rotate(0) translate(4 239.75)">
<title>compose</title>
<polygon fill="white" stroke="none" points="-4,4 -4,-239.75 372,-239.75 372,4 -4,4"/>
<g id="clust1" class="cluster">
<title>cluster_0</title>
<path fill="none" stroke="#252525" stroke-width="2" stroke-dasharray="5,2" d="M20,-8C20,-8 126,-8 126,-8 132,-8 138,-14 138,-20 138,-20 138,-215.75 138,-215.75 138,-221.75 132,-227.75 126,-227.75 126,-227.75 20,-227.75 20,-227.75 14,-227.75 8,-221.75 8,-215.75 8,-215.75 8,-20 8,-20 8,-14 14,-8 20,-8"/>
<text text-anchor="middle" x="73" y="-210.45" font-family="arial" font-size="14.00">simple.yaml</text>
</g>
<g id="clust2" class="cluster">
<title>cluster_1</title>
<path fill="none" stroke="#252525" stroke-width="2" stroke-dasharray="5,2" d="M158,-152C158,-152 348,-152 348,-152 354,-152 360,-158 360,-164 360,-164 360,-215.75 360,-215.75 360,-221.75 354,-227.75 348,-227.75 348,-227.75 158,-227.75 158,-227.75 152,-227.75 146,-221.75 146,-215.75 146,-215.75 146,-164 146,-164 146,-158 152,-152 158,-152"/>
<text text-anchor="middle" x="253" y="-210.45" font-family="arial" font-size="14.00">Legend</text>
</g>
<!-- my_database -->
<g id="node1" class="node">
<title>my_database</title>
<path fill="#238b45" stroke="#005824" stroke-width="2" d="M110.38,-120.73C110.38,-122.53 89.14,-124 63,-124 36.86,-124 15.62,-122.53 15.62,-120.73 15.62,-120.73 15.62,-91.27 15.62,-91.27 15.62,-89.47 36.86,-88 63,-88 89.14,-88 110.38,-89.47 110.38,-91.27 110.38,-91.27 110.38,-120.73 110.38,-120.73"/>
<path fill="none" stroke="#005824" stroke-width="2" d="M110.38,-120.73C110.38,-118.92 89.14,-117.45 63,-117.45 36.86,-117.45 15.62,-118.92 15.62,-120.73"/>
<text text-anchor="middle" x="63" y="-100.58" font-family="arial" font-size="14.00" fill="white">my&#45;database</text>
</g>
<!-- my_volume -->
<g id="node3" class="node">
<title>my_volume</title>
<path fill="#525252" stroke="#252525" stroke-width="2" d="M116.75,-48.73C116.75,-50.53 98.04,-52 75,-52 51.96,-52 33.25,-50.53 33.25,-48.73 33.25,-48.73 33.25,-19.27 33.25,-19.27 33.25,-17.47 51.96,-16 75,-16 98.04,-16 116.75,-17.47 116.75,-19.27 116.75,-19.27 116.75,-48.73 116.75,-48.73"/>
<path fill="none" stroke="#252525" stroke-width="2" d="M116.75,-48.73C116.75,-46.92 98.04,-45.45 75,-45.45 51.96,-45.45 33.25,-46.92 33.25,-48.73"/>
<text text-anchor="middle" x="75" y="-28.57" font-family="arial" font-size="14.00" fill="white">my&#45;volume</text>
</g>
<!-- my_database&#45;&gt;my_volume -->
<g id="edge1" class="edge">
<title>my_database&#45;&gt;my_volume</title>
<path fill="none" stroke="#252525" stroke-width="2" stroke-dasharray="5,2" d="M65.97,-87.7C67.23,-80.32 68.74,-71.52 70.16,-63.25"/>
<polygon fill="#252525" stroke="#252525" stroke-width="2" points="73.32,-65.54 71.56,-55.09 66.42,-64.35 73.32,-65.54"/>
</g>
<!-- my_service -->
<g id="node2" class="node">
<title>my_service</title>
<path fill="#2171b5" stroke="#084594" stroke-width="2" d="M105,-196C105,-196 47,-196 47,-196 41,-196 35,-190 35,-184 35,-184 35,-172 35,-172 35,-166 41,-160 47,-160 47,-160 105,-160 105,-160 111,-160 117,-166 117,-172 117,-172 117,-184 117,-184 117,-190 111,-196 105,-196"/>
<text text-anchor="middle" x="76" y="-172.57" font-family="arial" font-size="14.00" fill="white">my&#45;service</text>
</g>
<!-- my_service&#45;&gt;my_database -->
<g id="edge2" class="edge">
<title>my_service&#45;&gt;my_database</title>
<path fill="none" stroke="#252525" stroke-width="2" d="M72.79,-159.7C71.5,-152.75 69.97,-144.53 68.51,-136.68"/>
<polygon fill="#252525" stroke="#252525" stroke-width="2" points="68.7,-137.68 63.67,-132.51 66.51,-125.88 71.53,-131.05 68.7,-137.68"/>
</g>
<!-- my_service&#45;&gt;my_volume -->
<g id="edge3" class="edge">
<title>my_service&#45;&gt;my_volume</title>
<path fill="none" stroke="#252525" stroke-dasharray="5,2" d="M95.04,-159.84C104.18,-150.3 114.17,-137.62 119,-124 124.35,-108.92 124.43,-103.05 119,-88 115.4,-78.03 109.02,-68.61 102.21,-60.55"/>
<polygon fill="#252525" stroke="#252525" points="104.82,-58.22 95.49,-53.2 99.65,-62.94 104.82,-58.22"/>
</g>
<!-- service1 -->
<g id="node4" class="node">
<title>service1</title>
<path fill="#2171b5" stroke="#084594" stroke-width="2" d="M196,-196C196,-196 166,-196 166,-196 160,-196 154,-190 154,-184 154,-184 154,-172 154,-172 154,-166 160,-160 166,-160 166,-160 196,-160 196,-160 202,-160 208,-166 208,-172 208,-172 208,-184 208,-184 208,-190 202,-196 196,-196"/>
<text text-anchor="middle" x="181" y="-175.28" font-family="arial" font-size="8.00" fill="white">service1</text>
</g>
<!-- database -->
<g id="node5" class="node">
<title>database</title>
<path fill="#238b45" stroke="#005824" stroke-width="2" d="M280,-192.73C280,-194.53 267.9,-196 253,-196 238.1,-196 226,-194.53 226,-192.73 226,-192.73 226,-163.27 226,-163.27 226,-161.47 238.1,-160 253,-160 267.9,-160 280,-161.47 280,-163.27 280,-163.27 280,-192.73 280,-192.73"/>
<path fill="none" stroke="#005824" stroke-width="2" d="M280,-192.73C280,-190.92 267.9,-189.45 253,-189.45 238.1,-189.45 226,-190.92 226,-192.73"/>
<text text-anchor="middle" x="253" y="-175.28" font-family="arial" font-size="8.00" fill="white">database</text>
</g>
<!-- volume -->
<g id="node6" class="node">
<title>volume</title>
<path fill="#525252" stroke="#252525" stroke-width="2" d="M352,-192.73C352,-194.53 339.9,-196 325,-196 310.1,-196 298,-194.53 298,-192.73 298,-192.73 298,-163.27 298,-163.27 298,-161.47 310.1,-160 325,-160 339.9,-160 352,-161.47 352,-163.27 352,-163.27 352,-192.73 352,-192.73"/>
<path fill="none" stroke="#252525" stroke-width="2" d="M352,-192.73C352,-190.92 339.9,-189.45 325,-189.45 310.1,-189.45 298,-190.92 298,-192.73"/>
<text text-anchor="middle" x="325" y="-175.28" font-family="arial" font-size="8.00" fill="white">volume</text>
</g>
</g>
</svg>
