<?xml version="1.0" encoding="UTF-8" standalone="no"?>
<!DOCTYPE svg PUBLIC "-//W3C//DTD SVG 1.1//EN"
 "http://www.w3.org/Graphics/SVG/1.1/DTD/svg11.dtd">
<!-- Generated by graphviz version 12.2.1 (20241206.2353)
 -->
<!-- Title: compose Pages: 1 -->
<svg width="625pt" height="316pt"
 viewBox="0.00 0.00 625.00 315.75" xmlns="http://www.w3.org/2000/svg" xmlns:xlink="http://www.w3.org/1999/xlink">
<g id="graph0" class="graph" transform="scale(1 1) rotate(0) translate(4 311.75)">
<title>compose</title>
<polygon fill="white" stroke="none" points="-4,4 -4,-311.75 621,-311.75 621,4 -4,4"/>
<g id="clust1" class="cluster">
<title>cluster_0</title>
<path fill="none" stroke="#252525" stroke-width="2" stroke-dasharray="5,2" d="M20,-8C20,-8 231,-8 231,-8 237,-8 243,-14 243,-20 243,-20 243,-287.75 243,-287.75 243,-293.75 237,-299.75 231,-299.75 231,-299.75 20,-299.75 20,-299.75 14,-299.75 8,-293.75 8,-287.75 8,-287.75 8,-20 8,-20 8,-14 14,-8 20,-8"/>
<text text-anchor="middle" x="125.5" y="-282.45" font-family="arial" font-size="14.00">with&#45;labels.yaml</text>
</g>
<g id="clust2" class="cluster">
<title>cluster_1</title>
<path fill="none" stroke="#252525" stroke-width="2" stroke-dasharray="5,2" d="M263,-224C263,-224 597,-224 597,-224 603,-224 609,-230 609,-236 609,-236 609,-287.75 609,-287.75 609,-293.75 603,-299.75 597,-299.75 597,-299.75 263,-299.75 263,-299.75 257,-299.75 251,-293.75 251,-287.75 251,-287.75 251,-236 251,-236 251,-230 257,-224 263,-224"/>
<text text-anchor="middle" x="430" y="-282.45" font-family="arial" font-size="14.00">Legend</text>
</g>
<!-- my_database -->
<g id="node1" class="node">
<title>my_database</title>
<path fill="#238b45" stroke="#005824" stroke-width="2" d="M138.38,-120.73C138.38,-122.53 117.14,-124 91,-124 64.86,-124 43.62,-122.53 43.62,-120.73 43.62,-120.73 43.62,-91.27 43.62,-91.27 43.62,-89.47 64.86,-88 91,-88 117.14,-88 138.38,-89.47 138.38,-91.27 138.38,-91.27 138.38,-120.73 138.38,-120.73"/>
<path fill="none" stroke="#005824" stroke-width="2" d="M138.38,-120.73C138.38,-118.92 117.14,-117.45 91,-117.45 64.86,-117.45 43.62,-118.92 43.62,-120.73"/>
<text text-anchor="middle" x="91" y="-100.58" font-family="arial" font-size="14.00" fill="white">my&#45;database</text>
</g>
<!-- my_volume -->
<g id="node5" class="node">
<title>my_volume</title>
<path fill="#525252" stroke="#252525" stroke-width="2" d="M165.75,-48.73C165.75,-50.53 147.04,-52 124,-52 100.96,-52 82.25,-50.53 82.25,-48.73 82.25,-48.73 82.25,-19.27 82.25,-19.27 82.25,-17.47 100.96,-16 124,-16 147.04,-16 165.75,-17.47 165.75,-19.27 165.75,-19.27 165.75,-48.73 165.75,-48.73"/>
<path fill="none" stroke="#252525" stroke-width="2" d="M165.75,-48.73C165.75,-46.92 147.04,-45.45 124,-45.45 100.96,-45.45 82.25,-46.92 82.25,-48.73"/>
<text text-anchor="middle" x="124" y="-28.57" font-family="arial" font-size="14.00" fill="white">my&#45;volume</text>
</g>
<!-- my_database&#45;&gt;my_volume -->
<g id="edge1" class="edge">
<title>my_database&#45;&gt;my_volume</title>
<path fill="none" stroke="#252525" stroke-width="2" stroke-dasharray="5,2" d="M99.16,-87.7C102.75,-80.07 107.07,-70.92 111.08,-62.4"/>
<polygon fill="#252525" stroke="#252525" stroke-width="2" points="113.55,-65.38 114.65,-54.84 107.22,-62.4 113.55,-65.38"/>
</g>
<!-- my_service -->
<g id="node2" class="node">
<title>my_service</title>
<path fill="#2171b5" stroke="#084594" stroke-width="2" d="M147,-196C147,-196 89,-196 89,-196 83,-196 77,-190 77,-184 77,-184 77,-172 77,-172 77,-166 83,-160 89,-160 89,-160 147,-160 147,-160 153,-160 159,-166 159,-172 159,-172 159,-184 159,-184 159,-190 153,-196 147,-196"/>
<text text-anchor="middle" x="118" y="-172.57" font-family="arial" font-size="14.00" fill="white">my&#45;service</text>
</g>
<!-- my_service&#45;&gt;my_database -->
<g id="edge2" class="edge">
<title>my_service&#45;&gt;my_database</title>
<path fill="none" stroke="#252525" stroke-width="2" d="M111.33,-159.7C108.58,-152.58 105.32,-144.13 102.23,-136.11"/>
<polygon fill="#252525" stroke="#252525" stroke-width="2" points="102.56,-136.98 96.67,-132.82 98.25,-125.79 104.14,-129.94 102.56,-136.98"/>
</g>
<!-- my_service&#45;&gt;my_volume -->
<g id="edge3" class="edge">
<title>my_service&#45;&gt;my_volume</title>
<path fill="none" stroke="#252525" stroke-dasharray="5,2" d="M130.31,-159.78C136.65,-149.84 143.73,-136.8 147,-124 150.96,-108.5 150.25,-103.67 147,-88 145.21,-79.36 141.93,-70.39 138.4,-62.35"/>
<polygon fill="#252525" stroke="#252525" points="141.62,-60.99 134.19,-53.44 135.29,-63.98 141.62,-60.99"/>
</g>
<!-- my_service_init -->
<g id="node3" class="node">
<title>my_service_init</title>
<polygon fill="#525252" stroke="#252525" stroke-width="2" points="113.88,-268 16.12,-268 16.12,-232 119.88,-232 119.88,-262 113.88,-268"/>
<polyline fill="none" stroke="#252525" stroke-width="2" points="113.88,-268 113.88,-262"/>
<polyline fill="none" stroke="#252525" stroke-width="2" points="119.88,-262 113.88,-262"/>
<text text-anchor="middle" x="68" y="-244.57" font-family="arial" font-size="14.00" fill="white">my&#45;service&#45;init</text>
</g>
<!-- my_service_init&#45;&gt;my_service -->
<g id="edge4" class="edge">
<title>my_service_init&#45;&gt;my_service</title>
<path fill="none" stroke="#252525" stroke-dasharray="5,2" d="M80.36,-231.7C86.05,-223.73 92.93,-214.1 99.24,-205.26"/>
<polygon fill="#252525" stroke="#252525" points="101.94,-207.51 104.9,-197.34 96.24,-203.44 101.94,-207.51"/>
</g>
<!-- my_service_requestor -->
<g id="node4" class="node">
<title>my_service_requestor</title>
<path fill="#88419d" stroke="#6e016b" stroke-width="2" d="M222.5,-268C222.5,-268 149.5,-268 149.5,-268 143.5,-268 137.5,-262 137.5,-256 137.5,-256 137.5,-244 137.5,-244 137.5,-238 143.5,-232 149.5,-232 149.5,-232 222.5,-232 222.5,-232 228.5,-232 234.5,-238 234.5,-244 234.5,-244 234.5,-256 234.5,-256 234.5,-262 228.5,-268 222.5,-268"/>
<text text-anchor="middle" x="186" y="-244.57" font-family="arial" font-size="14.00" fill="white">my&#45;service&#45;ui</text>
</g>
<!-- my_service_requestor&#45;&gt;my_service -->
<g id="edge5" class="edge">
<title>my_service_requestor&#45;&gt;my_service</title>
<path fill="none" stroke="#252525" stroke-dasharray="5,2" d="M169.19,-231.7C161.12,-223.39 151.3,-213.28 142.42,-204.14"/>
<polygon fill="#252525" stroke="#252525" points="145.15,-201.92 135.67,-197.19 140.13,-206.8 145.15,-201.92"/>
</g>
<!-- service -->
<g id="node6" class="node">
<title>service</title>
<path fill="#2171b5" stroke="#084594" stroke-width="2" d="M301,-268C301,-268 271,-268 271,-268 265,-268 259,-262 259,-256 259,-256 259,-244 259,-244 259,-238 265,-232 271,-232 271,-232 301,-232 301,-232 307,-232 313,-238 313,-244 313,-244 313,-256 313,-256 313,-262 307,-268 301,-268"/>
<text text-anchor="middle" x="286" y="-247.28" font-family="arial" font-size="8.00" fill="white">service</text>
</g>
<!-- ui -->
<g id="node7" class="node">
<title>ui</title>
<path fill="#88419d" stroke="#6e016b" stroke-width="2" d="M373,-268C373,-268 343,-268 343,-268 337,-268 331,-262 331,-256 331,-256 331,-244 331,-244 331,-238 337,-232 343,-232 343,-232 373,-232 373,-232 379,-232 385,-238 385,-244 385,-244 385,-256 385,-256 385,-262 379,-268 373,-268"/>
<text text-anchor="middle" x="358" y="-247.28" font-family="arial" font-size="8.00" fill="white">ui</text>
</g>
<!-- database -->
<g id="node8" class="node">
<title>database</title>
<path fill="#238b45" stroke="#005824" stroke-width="2" d="M457,-264.73C457,-266.53 444.9,-268 430,-268 415.1,-268 403,-266.53 403,-264.73 403,-264.73 403,-235.27 403,-235.27 403,-233.47 415.1,-232 430,-232 444.9,-232 457,-233.47 457,-235.27 457,-235.27 457,-264.73 457,-264.73"/>
<path fill="none" stroke="#005824" stroke-width="2" d="M457,-264.73C457,-262.92 444.9,-261.45 430,-261.45 415.1,-261.45 403,-262.92 403,-264.73"/>
<text text-anchor="middle" x="430" y="-247.28" font-family="arial" font-size="8.00" fill="white">database</text>
</g>
<!-- script -->
<g id="node9" class="node">
<title>script</title>
<polygon fill="#525252" stroke="#252525" stroke-width="2" points="523,-268 475,-268 475,-232 529,-232 529,-262 523,-268"/>
<polyline fill="none" stroke="#252525" stroke-width="2" points="523,-268 523,-262"/>
<polyline fill="none" stroke="#252525" stroke-width="2" points="529,-262 523,-262"/>
<text text-anchor="middle" x="502" y="-247.28" font-family="arial" font-size="8.00" fill="white">script</text>
</g>
<!-- volume -->
<g id="node10" class="node">
<title>volume</title>
<path fill="#525252" stroke="#252525" stroke-width="2" d="M601,-264.73C601,-266.53 588.9,-268 574,-268 559.1,-268 547,-266.53 547,-264.73 547,-264.73 547,-235.27 547,-235.27 547,-233.47 559.1,-232 574,-232 588.9,-232 601,-233.47 601,-235.27 601,-235.27 601,-264.73 601,-264.73"/>
<path fill="none" stroke="#252525" stroke-width="2" d="M601,-264.73C601,-262.92 588.9,-261.45 574,-261.45 559.1,-261.45 547,-262.92 547,-264.73"/>
<text text-anchor="middle" x="574" y="-247.28" font-family="arial" font-size="8.00" fill="white">volume</text>
</g>
</g>
</svg>
